<svg width="269" height="85" viewBox="0 0 269 85" fill="none" xmlns="http://www.w3.org/2000/svg">
<path d="M29.4653 51H22.6758V24.5449H10.8545V51H4.04297V18.876H29.4653V51ZM42.3853 38.6733C42.3853 41.105 42.7808 42.9434 43.5718 44.1885C44.3774 45.4336 45.6812 46.0562 47.4829 46.0562C49.27 46.0562 50.5518 45.4409 51.3281 44.2104C52.1191 42.9653 52.5146 41.1196 52.5146 38.6733C52.5146 36.2417 52.1191 34.418 51.3281 33.2021C50.5371 31.9863 49.2407 31.3784 47.439 31.3784C45.6519 31.3784 44.3628 31.9863 43.5718 33.2021C42.7808 34.4033 42.3853 36.2271 42.3853 38.6733ZM59.3701 38.6733C59.3701 42.6724 58.3154 45.7998 56.2061 48.0557C54.0967 50.3115 51.1597 51.4395 47.395 51.4395C45.0366 51.4395 42.9565 50.9268 41.1548 49.9014C39.353 48.8613 37.9688 47.3745 37.002 45.4409C36.0352 43.5073 35.5518 41.2515 35.5518 38.6733C35.5518 34.6597 36.5991 31.5396 38.6938 29.313C40.7886 27.0864 43.7329 25.9731 47.5269 25.9731C49.8853 25.9731 51.9653 26.4858 53.7671 27.5112C55.5688 28.5366 56.9531 30.0088 57.9199 31.9277C58.8867 33.8467 59.3701 36.0952 59.3701 38.6733ZM78.3984 51.4395C75.5127 51.4395 73.2495 50.3921 71.6089 48.2974H71.2573C71.4917 50.3481 71.6089 51.5347 71.6089 51.8569V61.8105H64.9072V26.4346H70.3564L71.3013 29.6206H71.6089C73.1763 27.189 75.498 25.9731 78.5742 25.9731C81.4746 25.9731 83.7451 27.0938 85.3857 29.335C87.0264 31.5762 87.8467 34.689 87.8467 38.6733C87.8467 41.2954 87.4585 43.5732 86.6821 45.5068C85.9204 47.4404 84.8291 48.9126 83.4082 49.9233C81.9873 50.9341 80.3174 51.4395 78.3984 51.4395ZM76.4209 31.3345C74.7656 31.3345 73.5571 31.8472 72.7954 32.8726C72.0337 33.8833 71.6382 35.5605 71.6089 37.9043V38.6294C71.6089 41.2661 71.9971 43.1558 72.7734 44.2983C73.5645 45.4409 74.8096 46.0122 76.5088 46.0122C79.5117 46.0122 81.0132 43.5366 81.0132 38.5854C81.0132 36.1685 80.6396 34.3594 79.8926 33.1582C79.1602 31.9424 78.0029 31.3345 76.4209 31.3345ZM113.708 26.4346V31.4663H105.667V51H98.9648V31.4663H90.9009V26.4346H113.708ZM136.252 26.3027C140.354 26.6396 143.569 27.9067 145.898 30.104C148.228 32.3013 149.392 35.1724 149.392 38.7173C149.392 42.3354 148.242 45.2358 145.942 47.4185C143.643 49.5864 140.413 50.8389 136.252 51.1758V61.8105H130.034V51.1758C125.889 50.7949 122.644 49.4985 120.3 47.2866C117.971 45.0601 116.807 42.2036 116.807 38.7173C116.807 35.0112 117.935 32.0889 120.19 29.9502C122.446 27.7969 125.728 26.5811 130.034 26.3027V16.8105H136.252V26.3027ZM123.706 38.7173C123.706 40.7827 124.27 42.4673 125.398 43.771C126.526 45.0601 128.071 45.8364 130.034 46.1001V31.3345C128.145 31.5835 126.614 32.3818 125.442 33.7295C124.285 35.0771 123.706 36.7397 123.706 38.7173ZM142.515 38.7173C142.515 36.7837 141.965 35.1577 140.867 33.8394C139.768 32.5063 138.23 31.7007 136.252 31.4224V46.1001C138.201 45.8364 139.731 45.0527 140.845 43.749C141.958 42.4453 142.515 40.7681 142.515 38.7173ZM160.291 38.6733C160.291 41.105 160.686 42.9434 161.477 44.1885C162.283 45.4336 163.586 46.0562 165.388 46.0562C167.175 46.0562 168.457 45.4409 169.233 44.2104C170.024 42.9653 170.42 41.1196 170.42 38.6733C170.42 36.2417 170.024 34.418 169.233 33.2021C168.442 31.9863 167.146 31.3784 165.344 31.3784C163.557 31.3784 162.268 31.9863 161.477 33.2021C160.686 34.4033 160.291 36.2271 160.291 38.6733ZM177.275 38.6733C177.275 42.6724 176.221 45.7998 174.111 48.0557C172.002 50.3115 169.065 51.4395 165.3 51.4395C162.942 51.4395 160.862 50.9268 159.06 49.9014C157.258 48.8613 155.874 47.3745 154.907 45.4409C153.94 43.5073 153.457 41.2515 153.457 38.6733C153.457 34.6597 154.504 31.5396 156.599 29.313C158.694 27.0864 161.638 25.9731 165.432 25.9731C167.791 25.9731 169.871 26.4858 171.672 27.5112C173.474 28.5366 174.858 30.0088 175.825 31.9277C176.792 33.8467 177.275 36.0952 177.275 38.6733ZM204.807 51H198.105V31.4663H191.931C191.462 36.9595 190.891 41.061 190.217 43.771C189.543 46.4663 188.643 48.4219 187.515 49.6377C186.401 50.8389 184.937 51.4395 183.12 51.4395C181.567 51.4395 180.293 51.2051 179.297 50.7363V45.375C180.015 45.668 180.732 45.8145 181.45 45.8145C182.285 45.8145 182.981 45.2139 183.538 44.0127C184.109 42.8115 184.614 40.812 185.054 38.0142C185.508 35.2017 185.896 31.3418 186.218 26.4346H204.807V51ZM218.342 26.4346V36.1465C218.342 37.1719 218.174 39.6768 217.837 43.6611L229.175 26.4346H237.239V51H230.757V41.2002C230.757 39.457 230.903 36.9961 231.196 33.8174L219.902 51H211.86V26.4346H218.342ZM249.631 38.6733C249.631 41.105 250.027 42.9434 250.818 44.1885C251.624 45.4336 252.927 46.0562 254.729 46.0562C256.516 46.0562 257.798 45.4409 258.574 44.2104C259.365 42.9653 259.761 41.1196 259.761 38.6733C259.761 36.2417 259.365 34.418 258.574 33.2021C257.783 31.9863 256.487 31.3784 254.685 31.3784C252.898 31.3784 251.609 31.9863 250.818 33.2021C250.027 34.4033 249.631 36.2271 249.631 38.6733ZM266.616 38.6733C266.616 42.6724 265.562 45.7998 263.452 48.0557C261.343 50.3115 258.406 51.4395 254.641 51.4395C252.283 51.4395 250.203 50.9268 248.401 49.9014C246.599 48.8613 245.215 47.3745 244.248 45.4409C243.281 43.5073 242.798 41.2515 242.798 38.6733C242.798 34.6597 243.845 31.5396 245.94 29.313C248.035 27.0864 250.979 25.9731 254.773 25.9731C257.131 25.9731 259.211 26.4858 261.013 27.5112C262.815 28.5366 264.199 30.0088 265.166 31.9277C266.133 33.8467 266.616 36.0952 266.616 38.6733Z" fill="white"/>
<path d="M2.57031 67.5781H5.79688C7.3125 67.5781 8.40885 67.8047 9.08594 68.2578C9.76302 68.7109 10.1016 69.4271 10.1016 70.4062C10.1016 71.0833 9.91146 71.6432 9.53125 72.0859C9.15625 72.5234 8.60677 72.8073 7.88281 72.9375V73.0156C9.61719 73.3125 10.4844 74.224 10.4844 75.75C10.4844 76.7708 10.138 77.5677 9.44531 78.1406C8.75781 78.7135 7.79427 79 6.55469 79H2.57031V67.5781ZM3.89844 72.4688H6.08594C7.02344 72.4688 7.69792 72.3229 8.10938 72.0312C8.52083 71.7344 8.72656 71.237 8.72656 70.5391C8.72656 69.8984 8.4974 69.4375 8.03906 69.1562C7.58073 68.8698 6.85156 68.7266 5.85156 68.7266H3.89844V72.4688ZM3.89844 73.5938V77.8672H6.28125C7.20312 77.8672 7.89583 77.6901 8.35938 77.3359C8.82812 76.9766 9.0625 76.4167 9.0625 75.6562C9.0625 74.9479 8.82292 74.4271 8.34375 74.0938C7.86979 73.7604 7.14583 73.5938 6.17188 73.5938H3.89844ZM16.3672 79.1562C15.1016 79.1562 14.1016 78.7708 13.3672 78C12.638 77.2292 12.2734 76.1589 12.2734 74.7891C12.2734 73.4089 12.612 72.3125 13.2891 71.5C13.9714 70.6875 14.8854 70.2812 16.0312 70.2812C17.1042 70.2812 17.9531 70.6354 18.5781 71.3438C19.2031 72.0469 19.5156 72.9766 19.5156 74.1328V74.9531H13.6172C13.6432 75.9583 13.8958 76.7214 14.375 77.2422C14.8594 77.763 15.5391 78.0234 16.4141 78.0234C17.3359 78.0234 18.2474 77.8307 19.1484 77.4453V78.6016C18.6901 78.7995 18.2552 78.9401 17.8438 79.0234C17.4375 79.112 16.9453 79.1562 16.3672 79.1562ZM16.0156 71.3672C15.3281 71.3672 14.7786 71.5911 14.3672 72.0391C13.9609 72.487 13.7214 73.1068 13.6484 73.8984H18.125C18.125 73.0807 17.9427 72.4557 17.5781 72.0234C17.2135 71.5859 16.6927 71.3672 16.0156 71.3672ZM21.2891 73.8672C21.2891 71.9922 21.5651 70.5312 22.1172 69.4844C22.6693 68.4323 23.5443 67.776 24.7422 67.5156C26.2318 67.1979 27.5443 66.9401 28.6797 66.7422L28.9219 67.8828C27.1146 68.1849 25.8229 68.4245 25.0469 68.6016C24.2917 68.7734 23.724 69.1797 23.3438 69.8203C22.9688 70.4609 22.763 71.3333 22.7266 72.4375H22.8203C23.1432 72 23.5599 71.6562 24.0703 71.4062C24.5807 71.1562 25.1146 71.0312 25.6719 71.0312C26.724 71.0312 27.5443 71.3724 28.1328 72.0547C28.7214 72.737 29.0156 73.6823 29.0156 74.8906C29.0156 76.2292 28.6745 77.276 27.9922 78.0312C27.3099 78.7812 26.3594 79.1562 25.1406 79.1562C23.9375 79.1562 22.9948 78.6953 22.3125 77.7734C21.6302 76.8516 21.2891 75.5495 21.2891 73.8672ZM25.2578 78.0703C26.8464 78.0703 27.6406 77.0573 27.6406 75.0312C27.6406 73.099 26.9193 72.1328 25.4766 72.1328C25.0807 72.1328 24.6979 72.2161 24.3281 72.3828C23.9635 72.5443 23.6276 72.7604 23.3203 73.0312C23.0182 73.3021 22.7839 73.5807 22.6172 73.8672C22.6172 75.237 22.8333 76.2812 23.2656 77C23.6979 77.7135 24.362 78.0703 25.2578 78.0703ZM30.5625 75.3047V74.1172H34.3984V75.3047H30.5625ZM40.4219 79.1562C39.8646 79.1562 39.3542 79.0547 38.8906 78.8516C38.4323 78.6432 38.0469 78.3255 37.7344 77.8984H37.6406C37.7031 78.3984 37.7344 78.8724 37.7344 79.3203V82.8438H36.4375V70.4375H37.4922L37.6719 71.6094H37.7344C38.0677 71.1406 38.4557 70.8021 38.8984 70.5938C39.3411 70.3854 39.849 70.2812 40.4219 70.2812C41.5573 70.2812 42.4323 70.6693 43.0469 71.4453C43.6667 72.2214 43.9766 73.3099 43.9766 74.7109C43.9766 76.1172 43.6615 77.2109 43.0312 77.9922C42.4062 78.7682 41.5365 79.1562 40.4219 79.1562ZM40.2344 71.3828C39.3594 71.3828 38.7266 71.625 38.3359 72.1094C37.9453 72.5938 37.7448 73.3646 37.7344 74.4219V74.7109C37.7344 75.9141 37.9349 76.776 38.3359 77.2969C38.737 77.8125 39.3802 78.0703 40.2656 78.0703C41.0052 78.0703 41.5833 77.7708 42 77.1719C42.4219 76.5729 42.6328 75.7474 42.6328 74.6953C42.6328 73.6276 42.4219 72.8099 42 72.2422C41.5833 71.6693 40.9948 71.3828 40.2344 71.3828ZM51.5156 79L51.2578 77.7812H51.1953C50.7682 78.3177 50.3411 78.6823 49.9141 78.875C49.4922 79.0625 48.9635 79.1562 48.3281 79.1562C47.4792 79.1562 46.8125 78.9375 46.3281 78.5C45.849 78.0625 45.6094 77.4401 45.6094 76.6328C45.6094 74.9036 46.9922 73.9974 49.7578 73.9141L51.2109 73.8672V73.3359C51.2109 72.6641 51.0651 72.1693 50.7734 71.8516C50.487 71.5286 50.026 71.3672 49.3906 71.3672C48.6771 71.3672 47.8698 71.5859 46.9688 72.0234L46.5703 71.0312C46.9922 70.8021 47.4531 70.6224 47.9531 70.4922C48.4583 70.362 48.9635 70.2969 49.4688 70.2969C50.4896 70.2969 51.2448 70.5234 51.7344 70.9766C52.2292 71.4297 52.4766 72.1562 52.4766 73.1562V79H51.5156ZM48.5859 78.0859C49.3932 78.0859 50.026 77.8646 50.4844 77.4219C50.9479 76.9792 51.1797 76.3594 51.1797 75.5625V74.7891L49.8828 74.8438C48.8516 74.8802 48.1068 75.0417 47.6484 75.3281C47.1953 75.6094 46.9688 76.0495 46.9688 76.6484C46.9688 77.1172 47.1094 77.474 47.3906 77.7188C47.6771 77.9635 48.0755 78.0859 48.5859 78.0859ZM56.7891 73.9922C58.4089 73.9922 59.2188 73.5443 59.2188 72.6484C59.2188 71.8047 58.5625 71.3828 57.25 71.3828C56.849 71.3828 56.4844 71.4193 56.1562 71.4922C55.8281 71.5651 55.3984 71.7109 54.8672 71.9297L54.4062 70.875C55.2917 70.4792 56.2578 70.2812 57.3047 70.2812C58.2891 70.2812 59.0651 70.4844 59.6328 70.8906C60.2005 71.2917 60.4844 71.8411 60.4844 72.5391C60.4844 73.4974 59.9505 74.125 58.8828 74.4219V74.4844C59.5391 74.6771 60.0182 74.9531 60.3203 75.3125C60.6224 75.6667 60.7734 76.112 60.7734 76.6484C60.7734 77.4401 60.4531 78.0573 59.8125 78.5C59.1771 78.9375 58.2969 79.1562 57.1719 79.1562C55.9375 79.1562 54.9844 78.9714 54.3125 78.6016V77.4141C55.2656 77.862 56.2292 78.0859 57.2031 78.0859C57.9531 78.0859 58.5182 77.9583 58.8984 77.7031C59.2839 77.4427 59.4766 77.0703 59.4766 76.5859C59.4766 75.5911 58.6667 75.0938 57.0469 75.0938H55.8594V73.9922H56.7891ZM66.875 79.1562C66.3177 79.1562 65.8073 79.0547 65.3438 78.8516C64.8854 78.6432 64.5 78.3255 64.1875 77.8984H64.0938C64.1562 78.3984 64.1875 78.8724 64.1875 79.3203V82.8438H62.8906V70.4375H63.9453L64.125 71.6094H64.1875C64.5208 71.1406 64.9089 70.8021 65.3516 70.5938C65.7943 70.3854 66.3021 70.2812 66.875 70.2812C68.0104 70.2812 68.8854 70.6693 69.5 71.4453C70.1198 72.2214 70.4297 73.3099 70.4297 74.7109C70.4297 76.1172 70.1146 77.2109 69.4844 77.9922C68.8594 78.7682 67.9896 79.1562 66.875 79.1562ZM66.6875 71.3828C65.8125 71.3828 65.1797 71.625 64.7891 72.1094C64.3984 72.5938 64.1979 73.3646 64.1875 74.4219V74.7109C64.1875 75.9141 64.388 76.776 64.7891 77.2969C65.1901 77.8125 65.8333 78.0703 66.7188 78.0703C67.4583 78.0703 68.0365 77.7708 68.4531 77.1719C68.875 76.5729 69.0859 75.7474 69.0859 74.6953C69.0859 73.6276 68.875 72.8099 68.4531 72.2422C68.0365 71.6693 67.4479 71.3828 66.6875 71.3828ZM77.9688 79L77.7109 77.7812H77.6484C77.2214 78.3177 76.7943 78.6823 76.3672 78.875C75.9453 79.0625 75.4167 79.1562 74.7812 79.1562C73.9323 79.1562 73.2656 78.9375 72.7812 78.5C72.3021 78.0625 72.0625 77.4401 72.0625 76.6328C72.0625 74.9036 73.4453 73.9974 76.2109 73.9141L77.6641 73.8672V73.3359C77.6641 72.6641 77.5182 72.1693 77.2266 71.8516C76.9401 71.5286 76.4792 71.3672 75.8438 71.3672C75.1302 71.3672 74.3229 71.5859 73.4219 72.0234L73.0234 71.0312C73.4453 70.8021 73.9062 70.6224 74.4062 70.4922C74.9115 70.362 75.4167 70.2969 75.9219 70.2969C76.9427 70.2969 77.6979 70.5234 78.1875 70.9766C78.6823 71.4297 78.9297 72.1562 78.9297 73.1562V79H77.9688ZM75.0391 78.0859C75.8464 78.0859 76.4792 77.8646 76.9375 77.4219C77.401 76.9792 77.6328 76.3594 77.6328 75.5625V74.7891L76.3359 74.8438C75.3047 74.8802 74.5599 75.0417 74.1016 75.3281C73.6484 75.6094 73.4219 76.0495 73.4219 76.6484C73.4219 77.1172 73.5625 77.474 73.8438 77.7188C74.1302 77.9635 74.5286 78.0859 75.0391 78.0859ZM81.1641 73.8672C81.1641 71.9922 81.4401 70.5312 81.9922 69.4844C82.5443 68.4323 83.4193 67.776 84.6172 67.5156C86.1068 67.1979 87.4193 66.9401 88.5547 66.7422L88.7969 67.8828C86.9896 68.1849 85.6979 68.4245 84.9219 68.6016C84.1667 68.7734 83.599 69.1797 83.2188 69.8203C82.8438 70.4609 82.638 71.3333 82.6016 72.4375H82.6953C83.0182 72 83.4349 71.6562 83.9453 71.4062C84.4557 71.1562 84.9896 71.0312 85.5469 71.0312C86.599 71.0312 87.4193 71.3724 88.0078 72.0547C88.5964 72.737 88.8906 73.6823 88.8906 74.8906C88.8906 76.2292 88.5495 77.276 87.8672 78.0312C87.1849 78.7812 86.2344 79.1562 85.0156 79.1562C83.8125 79.1562 82.8698 78.6953 82.1875 77.7734C81.5052 76.8516 81.1641 75.5495 81.1641 73.8672ZM85.1328 78.0703C86.7214 78.0703 87.5156 77.0573 87.5156 75.0312C87.5156 73.099 86.7943 72.1328 85.3516 72.1328C84.9557 72.1328 84.5729 72.2161 84.2031 72.3828C83.8385 72.5443 83.5026 72.7604 83.1953 73.0312C82.8932 73.3021 82.6589 73.5807 82.4922 73.8672C82.4922 75.237 82.7083 76.2812 83.1406 77C83.5729 77.7135 84.237 78.0703 85.1328 78.0703ZM98.5469 74.7109C98.5469 76.1068 98.1953 77.1979 97.4922 77.9844C96.7891 78.7656 95.8177 79.1562 94.5781 79.1562C93.8125 79.1562 93.1328 78.9766 92.5391 78.6172C91.9453 78.2578 91.487 77.7422 91.1641 77.0703C90.8411 76.3984 90.6797 75.612 90.6797 74.7109C90.6797 73.3151 91.0286 72.2292 91.7266 71.4531C92.4245 70.6719 93.3932 70.2812 94.6328 70.2812C95.8307 70.2812 96.7812 70.6797 97.4844 71.4766C98.1927 72.2734 98.5469 73.3516 98.5469 74.7109ZM92.0234 74.7109C92.0234 75.8047 92.2422 76.638 92.6797 77.2109C93.1172 77.7839 93.7604 78.0703 94.6094 78.0703C95.4583 78.0703 96.1016 77.7865 96.5391 77.2188C96.9818 76.6458 97.2031 75.8099 97.2031 74.7109C97.2031 73.6224 96.9818 72.7969 96.5391 72.2344C96.1016 71.6667 95.4531 71.3828 94.5938 71.3828C93.7448 71.3828 93.1042 71.6615 92.6719 72.2188C92.2396 72.776 92.0234 73.6068 92.0234 74.7109ZM106.602 71.5469H103.82V79H102.523V71.5469H99.7734V70.4375H106.602V71.5469ZM109.438 70.4375V73.5625C109.438 74.5625 110.008 75.0625 111.148 75.0625C111.622 75.0625 112.076 74.9896 112.508 74.8438C112.94 74.6979 113.43 74.4505 113.977 74.1016V70.4375H115.273V79H113.977V75.125C113.43 75.5 112.922 75.7656 112.453 75.9219C111.99 76.0729 111.464 76.1484 110.875 76.1484C110.021 76.1484 109.352 75.9245 108.867 75.4766C108.383 75.0286 108.141 74.4219 108.141 73.6562V70.4375H109.438ZM119.25 70.4375V75.8672L119.195 77.2891L119.172 77.7344L123.805 70.4375H125.422V79H124.211V73.7656L124.234 72.7344L124.273 71.7188L119.648 79H118.031V70.4375H119.25ZM133.164 70.4375H134.586L130.891 74.5703L134.891 79H133.375L129.469 74.6641V79H128.172V70.4375H129.469V74.6016L133.164 70.4375Z" fill="white"/>
</svg>
